<?xml version="1.0" encoding="utf-8"?>
<!-- Generator: Adobe Illustrator 27.8.1, SVG Export Plug-In . SVG Version: 6.00 Build 0)  -->
<svg version="1.1" id="圖層_1" xmlns="http://www.w3.org/2000/svg" xmlns:xlink="http://www.w3.org/1999/xlink" x="0px" y="0px"
	 viewBox="0 0 32 32" style="enable-background:new 0 0 32 32;" xml:space="preserve">
<style type="text/css">
	.st0{fill:#FFFFFF;}
</style>
<path class="st0" d="M29.88,23.9c1.32-2.32,2.08-5.01,2.08-7.86c0-2.86-0.76-5.54-2.08-7.86c-0.03-0.08-0.07-0.14-0.12-0.21
	C26.98,3.25,21.86,0.08,16,0.08c-5.86,0-10.98,3.17-13.76,7.89C2.19,8.03,2.15,8.1,2.12,8.17c-1.32,2.32-2.08,5.01-2.08,7.86
	c0,2.86,0.76,5.54,2.08,7.86c0.03,0.08,0.07,0.14,0.12,0.21C5.02,28.83,10.14,32,16,32c5.86,0,10.98-3.17,13.76-7.89
	C29.81,24.05,29.85,23.98,29.88,23.9z M22.71,15.2h-5.87V9.32h5.07C22.36,11.1,22.65,13.1,22.71,15.2z M15.16,9.32v5.89H9.29
	c0.06-2.1,0.35-4.1,0.81-5.89H15.16z M9.29,16.88h5.87v5.89H10.1C9.64,20.98,9.35,18.98,9.29,16.88z M16.84,22.76v-5.89h5.87
	c-0.06,2.1-0.35,4.1-0.81,5.89H16.84z M24.39,15.2c-0.05-2.11-0.32-4.09-0.75-5.89h4.96c0.95,1.77,1.54,3.77,1.66,5.89H24.39z
	 M21.4,7.64h-4.56V1.87C18.68,2.39,20.32,4.56,21.4,7.64z M15.16,7.64H10.6c1.08-3.08,2.71-5.25,4.56-5.76V7.64z M8.36,9.32
	c-0.43,1.8-0.69,3.78-0.75,5.89H1.74c0.12-2.12,0.71-4.11,1.66-5.89H8.36z M7.61,16.88c0.05,2.1,0.32,4.09,0.75,5.89H3.4
	c-0.95-1.77-1.54-3.77-1.66-5.89H7.61z M10.6,24.44h4.56v5.77C13.32,29.69,11.68,27.52,10.6,24.44z M16.84,24.44h4.56
	c-1.08,3.08-2.71,5.25-4.56,5.77V24.44z M23.64,22.76c0.43-1.8,0.69-3.78,0.75-5.89h5.87c-0.12,2.12-0.71,4.11-1.66,5.89H23.64z
	 M23.18,7.64c-0.67-2.1-1.59-3.86-2.69-5.16c2.86,0.95,5.32,2.77,7.06,5.16H23.18z M8.82,7.64H4.46c1.74-2.38,4.2-4.21,7.06-5.16
	C10.41,3.78,9.49,5.54,8.82,7.64z M8.82,24.44c0.67,2.1,1.59,3.86,2.69,5.16c-2.86-0.95-5.32-2.77-7.06-5.16H8.82z M23.18,24.44
	h4.37c-1.74,2.38-4.2,4.21-7.06,5.16C21.59,28.3,22.51,26.54,23.18,24.44z"/>
</svg>
